# xmcd
#
# Track frame offsets:
#	150
#	18171
#	28131
#	45825
#	65955
#	80683
#	90896
#	104127
#	116776
#	126471
#	138435
#	150561
#	160871
#	175616
#	188211
#	200928
#
# Disc length: 2831 seconds
# Revision: 0
# Processed by: cddbd v1.5.2PL0 Copyright (c) Steve Scherf et al.
# Submitted via: dBpowerAMP V12.0
#
DISCID=de0b0d10
DTITLE=Sheldon Tucker - A Cowboy's Life
DYEAR=1900
DGENRE=Country
TTITLE0=Wyoming Is on My Mind
TTITLE1=Ole Buttermilk Sky
TTITLE2=Is It Because
TTITLE3=Prairie Girl
TTITLE4=Montana Songbird
TTITLE5=The Last of the Silver Screen Cowboy
TTITLE6=Return to Me
TTITLE7=Jesus Loves Me
TTITLE8=Ugly Girl Blues
TTITLE9=Among My Souvenirs
TTITLE10=You Don't Know Me
TTITLE11=Am I Theat Easy to Forget
TTITLE12=Carried Away
TTITLE13=That Old Lamplighter
TTITLE14=I'll Be Seeing You
TTITLE15=Roses Are Red
EXTD=
EXTT0=
EXTT1=
EXTT2=
EXTT3=
EXTT4=
EXTT5=
EXTT6=
EXTT7=
EXTT8=
EXTT9=
EXTT10=
EXTT11=
EXTT12=
EXTT13=
EXTT14=
EXTT15=
PLAYORDER=
